#!OML:ASF H:\MichaelJackson\Top Level 1\Subject 1\Session 1\male.ASF
:FULLY-SPECIFIED
:DEGREES
1193
root -8.14448 17.119 26.6531 -176.78 182.234 181.29
lowerback 6.98968 -5.56075 -2.29995
upperback 0.102103 -7.5929 -0.113031
thorax -3.50669 -3.73318 1.89171
lowerneck -8.18177 -0.614852 3.64273
upperneck 5.79465 -1.10538 -1.73449
head 3.29525 -0.534563 -1.27332
rclavicle 2.60905e-014 -1.45113e-014
rhumerus -5.88805 4.19542 -4.71265
rradius 98.6647
rwrist -22.5659
rhand -1.83635 -6.40141
rfingers 7.12502
rthumb 23.8303 -1114.94
lclavicle 2.60905e-014 -1.45113e-014
lhumerus -46.5368 -24.3803 115.291
lradius 51.0702
lwrist 19.7209
lhand 27.9424 28.3697
lfingers 7.12502
lthumb 51.8479 48.5653
rfemur -67.0071 -26.9702 11.6149
rtibia 98.123
rfoot 25.1715 26.3644
rtoes -16.6212
lfemur -15.4451 16.5298 -22.175
ltibia 31.7258
lfoot -20.7563 5.62675
ltoes -6.88065
1194
root -8.19108 17.1254 26.6662 -176.468 181.867 181.306
lowerback 6.50303 -5.79044 -2.10447
upperback -0.0137656 -7.87449 -0.112708
thorax -3.36942 -3.87932 1.76345
lowerneck -8.16279 -0.494008 3.79239
upperneck 5.82196 -0.955277 -1.79711
head 3.30597 -0.458885 -1.31319
rclavicle 1.2921e-015 -2.16675e-014
rhumerus -5.57379 3.07089 -3.65876
rradius 97.3388
rwrist -21.2633
rhand -0.717577 -5.64928
rfingers 7.12502
rthumb 24.9029 -1114.05
lclavicle 1.2921e-015 -2.16675e-014
lhumerus -46.6516 -24.0586 115.095
lradius 50.9203
lwrist 20.1072
lhand 28.0088 28.7274
lfingers 7.12502
lthumb 51.9082 48.8874
rfemur -64.054 -25.9131 9.59572
rtibia 94.0016
rfoot 24.1352 25.0363
rtoes -14.9439
lfemur -15.6181 16.8504 -22.0871
ltibia 31.6697
lfoot -20.6015 7.18434
ltoes -7.90227
1195
root -8.23985 17.128 26.6807 -176.163 181.451 181.294
lowerback 6.02476 -6.03006 -1.89462
upperback -0.141766 -8.16989 -0.0888428
thorax -3.24929 -4.03198 1.65149
lowerneck -8.1486 -0.382506 3.91444
upperneck 5.89082 -0.814526 -1.86004
head 3.33207 -0.388129 -1.3493
rclavicle -1.01504e-013 -1.5704e-014
rhumerus -5.19478 1.91737 -2.56861
rradius 95.8263
rwrist -20.2942
rhand 0.421367 -5.21729
rfingers 7.12502
rthumb 25.9939 -1113.46
lclavicle -1.01504e-013 -1.5704e-014
lhumerus -46.8034 -23.8276 114.964
lradius 50.7277
lwrist 20.4187
lhand 28.0751 28.984
lfingers 7.12502
lthumb 51.9683 49.1085
rfemur -61.0124 -24.7427 7.69779
rtibia 89.7653
rfoot 22.8547 23.2838
rtoes -13.4523
lfemur -15.8351 17.2426 -21.9558
ltibia 31.7261
lfoot -20.4062 8.76763
ltoes -8.54691
1196
root -8.29068 17.1267 26.6972 -175.886 181.019 181.253
lowerback 5.56921 -6.26767 -1.67025
upperback -0.278291 -8.46376 -0.0465631
thorax -3.15185 -4.18355 1.55095
lowerneck -8.14974 -0.284522 4.00288
upperneck 6.01591 -0.688851 -1.91752
head 3.3804 -0.324943 -1.37923
rclavicle -8.52538e-014 1.11319e-014
rhumerus -4.77938 0.80607 -1.41279
rradius 94.1866
rwrist -19.8084
rhand 1.44783 -5.15857
rfingers 7.12502
rthumb 26.9764 -1113.25
lclavicle -8.52538e-014 1.11319e-014
lhumerus -47.0014 -23.6833 114.899
lradius 50.5106
lwrist 20.644
lhand 28.1476 29.1355
lfingers 7.12502
lthumb 52.0341 49.2209
rfemur -57.8951 -23.4296 5.92436
rtibia 85.4694
rfoot 21.4367 21.0237
rtoes -11.8665
lfemur -16.0678 17.7399 -21.7704
ltibia 31.8779
lfoot -20.1898 10.2615
ltoes -8.86734
